<?xml version="1.0" standalone="no"?>
<!DOCTYPE svg PUBLIC "-//W3C//DTD SVG 20010904//EN"
 "http://www.w3.org/TR/2001/REC-SVG-20010904/DTD/svg10.dtd">
<svg version="1.0" xmlns="http://www.w3.org/2000/svg"
 width="762.000000pt" height="726.000000pt" viewBox="0 0 762.000000 726.000000"
 preserveAspectRatio="xMidYMid meet">

<g transform="translate(0.000000,726.000000) scale(0.100000,-0.100000)"
fill="#000000" stroke="none">
<path d="M10 4923 l0 -2309 333 -560 332 -559 5 1714 5 1714 58 -119 57 -119
0 -1520 0 -1521 311 -444 c171 -245 323 -461 338 -480 l26 -35 5 1454 5 1455
1003 -1726 c552 -949 1009 -1734 1017 -1744 12 -17 14 45 15 467 l0 485 -1749
3073 c-962 1689 -1751 3075 -1755 3078 -3 4 -6 -1033 -6 -2304z"/>
</g>
</svg>
