<svg xmlns="http://www.w3.org/2000/svg" width="256" height="256" viewBox="0 0 107.725 107.725"><path fill="#f0db4f" d="M0 0h107.725v107.725H0z"/><path d="M98.908 82.033c-.788-4.915-3.994-9.042-13.486-12.892-3.297-1.516-6.973-2.601-8.069-5.1-.389-1.454-.44-2.273-.195-3.154.707-2.857 4.116-3.748 6.82-2.929 1.741.584 3.389 1.925 4.383 4.065 4.649-3.01 4.639-2.99 7.885-5.058-1.188-1.843-1.823-2.693-2.601-3.482-2.796-3.123-6.605-4.731-12.698-4.608-1.055.133-2.12.276-3.174.41-3.041.768-5.939 2.365-7.639 4.506-5.1 5.786-3.645 15.913 2.56 20.081 6.113 4.588 15.094 5.632 16.241 9.923 1.116 5.253-3.86 6.953-8.806 6.349-3.645-.758-5.673-2.611-7.864-5.98-4.034 2.335-4.034 2.335-8.182 4.721.983 2.15 2.017 3.123 3.666 4.987 7.803 7.916 27.33 7.526 30.833-4.454.143-.41 1.085-3.154.328-7.383zM58.562 49.511H48.486c0 8.704-.041 17.347-.041 26.051 0 5.54.287 10.619-.614 12.175-1.475 3.062-5.294 2.683-7.035 2.089-1.772-.87-2.673-2.109-3.717-3.86-.287-.502-.502-.891-.574-.922-2.734 1.669-5.458 3.348-8.192 5.018 1.362 2.796 3.369 5.222 5.939 6.799 3.84 2.304 9.001 3.011 14.398 1.772 3.512-1.024 6.543-3.144 8.13-6.369 2.294-4.229 1.802-9.349 1.782-15.012.051-9.236 0-18.473 0-27.74z" fill="#323330"/></svg>