<svg xmlns="http://www.w3.org/2000/svg" preserveAspectRatio="xMidYMid" viewBox="0 0 256000 289000"><path d="M128000 288464c-3975 0-7685-1060-11130-2915l-35247-20936c-5300-2915-2650-3975-1060-4505 7155-2385 8480-2915 15900-7156 796-530 1856-265 2650 265l27032 16166c1060 530 2385 530 3180 0l105740-61217c1060-530 1590-1590 1590-2915V83080c0-1325-530-2385-1590-2915l-105740-60953c-1060-530-2385-530-3180 0L20405 80166c-1060 530-1590 1855-1590 2915v122170c0 1060 530 2385 1590 2915l28887 16695c15636 7950 25440-1325 25440-10600V93681c0-1590 1326-3180 3181-3180h13516c1590 0 3180 1327 3180 3180v120580c0 20938-11399 33128-31275 33128-6095 0-10865 0-24380-6625l-27827-15900C4240 220885 0 213465 0 205515V83346C0 75396 4240 67976 11130 64000L116870 2783c6625-3710 15635-3710 22260 0L244870 64000C251760 67975 256000 75395 256000 83346v122170c0 7950-4240 15370-11130 19345L139130 286080c-3445 1590-7420 2385-11130 2385Zm32596-84009c-46377 0-55917-21200-55917-39221 0-1590 1325-3180 3180-3180h13780c1590 0 2913 1060 2913 2650 2120 14045 8215 20936 36306 20936 22261 0 31802-5035 31802-16960 0-6891-2650-11926-37367-15372-28886-2915-46907-9275-46907-32330 0-21467 18020-34187 48232-34187 33922 0 50618 11660 52738 37101 0 795-265 1590-795 2385-530 530-1325 1060-2120 1060h-13780c-1326 0-2650-1060-2916-2385-3180-14575-11395-19345-33126-19345-24380 0-27296 8480-27296 14840 0 7686 3445 10070 36306 14310 32600 4240 47970 10336 47970 33127-266 23321-19346 36571-53003 36571Z" fill="#539E43"/></svg>
