<svg xmlns="http://www.w3.org/2000/svg" preserveAspectRatio="xMidYMid" viewBox="0 0 256000 228000"><path d="M210483 73824a171490 171490 0 00-8240-2597c465-1900 893-3777 1273-5621 6238-30280 2160-54676-11769-62708-13355-7700-35196 330-57254 19526a171230 171230 0 00-6375 5848 155866 155866 0 00-4241-3917C100759 3830 77587-4822 63673 3233 50330 10957 46380 33890 51995 62588a170974 170974 0 00 1892 8480c-3280 932-6445 1924-9474 2980C17309 83498 0 98307 0 113668c0 15865 18582 31778 46812 41427a145520 145520 0 00 6921 2165 167467 167467 0 00-2010 9138c-5354 28200-1173 50591 12134 58266 13744 7926 36812-220 59273-19855a145567 145567 0 00 5342-4923 168064 168064 0 00 6920 6314c21758 18722 43246 26282 56540 18586 13731-7949 18194-32003 12400-61268a145016 145016 0 00-1535-6842c1620-480 3210-974 4760-1488 29348-9723 48443-25443 48443-41520 0-15417-17868-30326-45517-39844Zm-6365 70984c-1400 463-2836 910-4300 1345-3240-10257-7612-21163-12963-32432 5106-11000 9310-21765 12459-31955 2619 758 5160 1557 7610 2400 23690 8156 38140 20213 38140 29504 0 9895-15606 22742-40946 31139Zm-10514 20834c2562 12940 2927 24640 1230 33787-1524 8219-4590 13698-8382 15893-8067 4670-25320-1400-43927-17412a156726 156726 0 01-6437-5870c7214-7889 14423-17060 21459-27246 12376-1098 24068-2894 34670-5345a134170 134170 0 01 1387 6193ZM87276 214515c-7882 2783-14160 2863-17955 675-8075-4657-11432-22636-6853-46752a156923 156923 0 01 1869-8499c10486 2320 22093 3988 34498 4994 7084 9967 14501 19128 21976 27150a134668 134668 0 01-4875 4492c-9933 8682-19886 14842-28658 17940ZM50350 144747c-12483-4267-22792-9812-29858-15863-6350-5437-9555-10836-9555-15216 0-9322 13897-21212 37076-29293 2813-980 5757-1905 8812-2773 3204 10420 7406 21315 12477 32332-5137 11180-9399 22250-12634 32792a134718 134718 0 01-6318-1979Zm12378-84260c-4811-24587-1616-43134 6425-47789 8564-4958 27502 2111 47463 19835a144318 144318 0 01 3841 3545c-7438 7987-14787 17080-21808 26988-12040 1116-23565 2908-34161 5310a160342 160342 0 01-1760-7888Zm110427 27268a347800 347800 0 00-7785-12803c8168 1033 15994 2404 23343 4080-2206 7072-4956 14465-8193 22045a381151 381151 0 00-7365-13322Zm-45032-43860c5044 5464 10096 11565 15065 18185a322040 322040 0 00-30257-6c4976-6559 10070-12652 15194-18180ZM82803 87830a323167 323167 0 00-7228 13238c-3184-7553-5909-14980-8134-22152 7304-1634 15093-2970 23209-3984a321524 321524 0 00-7848 12897Zm8080 65352c-8385-936-16290-2203-23593-3793 2260-7300 5045-14885 8298-22600a321187 321187 0 00 7257 13244c2594 4480 5280 8868 8038 13147Zm37542 31030c-5184-5592-10354-11779-15403-18433 4902 192 9899 290 14978 290 5218 0 10376-117 15453-343-4985 6774-10018 12970-15028 18486Zm52198-57817c3422 7800 6306 15345 8596 22520-7422 1694-15436 3058-23880 4071a382417 382417 0 00 7860-13026 347403 347403 0 00 7424-13565Zm-16898 8101a358557 358557 0 01-12280 19815 329400 329400 0 01-23445 823c-7967 0-15716-248-23178-732a310202 310202 0 01-12513-19846h1a307410 307410 0 01-10923-20627 310278 310278 0 01 10890-20639v1a307318 307318 0 01 12412-19760c7611-577 15420-877 23310-877 7925 0 15742 303 23353 883a329357 329357 0 01 12335 19695 358489 358489 0 01 11035 20540 329472 329472 0 01-11000 20722Zm22560-122124c8572 4944 11906 24881 6520 51026-344 1668-730 3367-1150 5090-10622-2452-22155-4275-34230-5408-7034-10017-14323-19124-21640-27008a160789 160789 0 01 5888-5400c18900-16447 36564-22940 44612-18300ZM128000 90808c12625 0 22860 10235 22860 22860s-10235 22860-22860 22860-22860-10235-22860-22860 10235-22860 22860-22860Z" fill="#00D8FF"/></svg>
