<svg xmlns="http://www.w3.org/2000/svg" preserveAspectRatio="xMidYMid" viewBox="0 0 5120 2280"><defs><linearGradient id="a" x1="577%" x2="577%" y1="20%" y2="944%"><stop offset="0%" stop-color="#97D9F6"/><stop offset="92%" stop-color="#0F80CC"/><stop offset="100%" stop-color="#0F80CC"/></linearGradient></defs><path d="M1945 1120c-68 0-123 20-166 61-43 40-64 93-64 158a233 233 0 00 65 170c22 24 66 56 132 97 80 50 134 90 160 120 25 32 37 64 37 99 0 45-15 82-46 110a180 180 0 01-124 40 201 201 0 01-203-208h-25v229h25c8-22 18-33 32-33 7 0 23 4 47 13 60 21 109 32 147 32a230 230 0 00 170-70 232 232 0 00 24-308c-30-40-90-86-180-140a595 595 0 01-150-113c-23-30-35-61-35-97 0-38 15-70 42-92 28-23 65-35 110-35 52 0 95 15 129 46 33 30 53 74 59 128h25V1130h-23a60 60 0 01-8 20c-3 3-7 4-14 4a170 170 0 01-43-10 386 386 0 00-123-23Zm824 0a446 446 0 00-390 222 435 435 0 00 45 502c70 82 153 133 250 153 21 11 53 41 94 90 47 53 86 93 119 116A356 356 0 00 3110 2270c53 0 100-9 140-27l-9-23a201 201 0 01-187-23c-36-25-83-71-138-140a476 476 0 00-54-61c106-20 193-72 260-154a428 428 0 00 102-280 420 420 0 00-132-314 448 448 0 00-324-129Zm514 0 1 27c55 0 86 17 93 50 3 11 4 33 4 64v596c0 45-7 73-20 86-11 12-32 20-62 23l-1 26h551l14-135h-25c-7 37-23 63-50 78a305 305 0 01-140 23h-52c-60 0-95-22-105-66-2-9-2-18-2-28l2-603c0-44 5-74 17-89 12-14 33-23 64-25l-2-27h-287Zm-506 33a280 280 0 01 230 112 480 480 0 01 88 305c0 123-30 221-89 295a290 290 0 01-237 110c-95 0-172-38-230-114a471 471 0 01-89-296c0-125 30-225 90-300 59-75 138-112 237-112Zm1269 128c-13 0-24 5-31 14-8 10-10 20-8 34a60 60 0 00 22 34c11 10 24 14 37 14 13 0 23-5 30-14 7-10 10-21 7-34-3-14-10-25-20-34a56 56 0 00-37-14Zm364 92c-23 88-73 135-149 143l1 25h89l-2 298c0 51 2 85 5 102 10 42 36 63 81 63 66 0 134-40 206-120l-22-18c-52 52-97 78-137 78-25 0-40-14-46-42l-2-24v-337h137l-2-40h-134v-128H4410Zm524 112c-76 0-137 37-185 110a313 313 0 00-44 244 210 210 0 00 67 122 190 190 0 00 127 43c47 0 114-12 141-37 28-24 54-63 78-117l-20-20a206 206 0 01-171 105c-80 0-128-43-146-130l-5-35a460 460 0 00 214-80c48-38 96-79 87-121a99 99 0 00-39-60c-20-16-74-24-104-24Zm-830 3-163 38v29l57-7c27 0 43 12 48 37 2 8 3 20 4 34l-2 268c0 37-5 58-13 65-8 6-30 10-66 10v25h259v-25c-37 0-60-3-70-9-10-5-18-15-21-30-2-12-3-31-4-57l1-378h-30Zm789 50c16 0 30 6 46 18a70 70 0 01 28 40c14 70-49 120-190 147a250 250 0 01 27-141c23-43 53-64 89-64Z" fill="#003B57"/><path d="M1579 100H170C77 100 0 177 0 270v1552c0 94 77 172 171 172h927c-10-462 147-1357 480-1895Z" fill="#0F80CC"/><path d="M1528 150H170c-65 0-120 54-120 120v1440c307-118 768-220 1087-215a9897 9897 0 01 390-1345Z" fill="url(#a)"/><path d="M1907 49c-96-86-213-52-328 50a814 814 0 00-51 50c-197 210-380 597-437 892a815 815 0 01 58 177l8 35-9-28a1738 1738 0 00-8-20 1720 1720 0 00-64-121l-35 110c45 82 73 224 73 224l-14-41c-10-29-60-117-72-137-20 75-28 126-21 138 14 24 27 65 40 110a2576 2576 0 01 46 250c-3 86-1 176 5 257a910 910 0 00 47 248l15-8a1110 1110 0 01-39-370c9-225 60-495 156-777 160-425 384-766 588-930-186 170-438 714-514 916a3657 3657 0 00-180 640c62-190 264-272 264-272s98-122 214-296a2100 2100 0 00-221 60l-71 30s181-110 337-160C1910 738 2142 259 1907 49" fill="#003B57"/></svg>
