<svg xmlns="http://www.w3.org/2000/svg" preserveAspectRatio="xMidYMid" viewBox="0 0 2560 1540"><defs><linearGradient id="a" x1="-27.78%" x2="1000%" y1="320%" y2="675.56%"><stop offset="0%" stop-color="#2298BD"/><stop offset="100%" stop-color="#0ED7B5"/></linearGradient></defs><path d="M1280 0C938.67 0 725.33 170.67 640 512 768 341.33 917.33 277.33 1088 320c97.37 24.34 166.97 94.99 244.01 173.18C1457.51 620.58 1602.75 768 1920 768c341.33 0 554.67-170.67 640-512-128 170.67-277.33 234.67-448 192-97.37-24.34-166.97-94.99-244.01-173.18C1742.49 147.43 1597.25 0 1279.99 0ZM640 768C298.67 768 85.33 938.67 0 1280c128-170.67 277.33-234.67 448-192 97.37 24.34 166.97 94.99 244.01 173.18C817.5 1388.58 962.75 1536 1280 1536c341.33 0 554.67-170.67 640-512-128 170.67-277.33 234.67-448 192-97.37-24.34-166.97-94.99-244.01-173.18-125.5-127.39-270.74-274.82-588-274.82Z" fill="url(#a)"/></svg>
